Coordinates
version=1
nRows=60
nColumns=12
inDegrees=yes

Units are S.I. units (second, meters, Newtons, ...)
Angles are in degrees

endheader
time	SC_y	SC_z	SC_x	AC_y	AC_z	AC_x	GH_y	GH_z	GH_yy	EL_x	PS_y
       0.0              -22.25          31.71          20.89          64.59        -0.8662          12.66         -38.84          24.39         -112.3          53.67          53.47
   0.01215              -22.25          31.71          20.89          64.59        -0.8647          12.66         -38.85          24.39         -112.3          53.68          53.48
   0.02429              -22.26           31.7          20.89          64.58         -0.863          12.65         -38.86          24.38         -112.3          53.68          53.48
   0.03644              -22.26           31.7          20.89          64.58        -0.8613          12.65         -38.88          24.38         -112.3          53.69          53.49
   0.04859              -22.27          31.69           20.9          64.57        -0.8594          12.65         -38.89          24.38         -112.2           53.7           53.5
   0.06074              -22.27          31.69           20.9          64.57        -0.8574          12.65         -38.91          24.37         -112.2           53.7           53.5
   0.07288              -22.28          31.68           20.9          64.56        -0.8552          12.65         -38.93          24.37         -112.2          53.71          53.51
   0.08503              -22.29          31.67          20.91          64.56         -0.853          12.65         -38.95          24.36         -112.2          53.72          53.52
   0.09718              -22.29          31.67          20.91          64.55        -0.8505          12.64         -38.97          24.36         -112.1          53.73          53.53
    0.1093               -22.3          31.66          20.92          64.54        -0.8479          12.64         -38.99          24.35         -112.1          53.74          53.54
    0.1215              -22.31          31.65          20.92          64.54        -0.8451          12.64         -39.01          24.34         -112.1          53.75          53.55
    0.1336              -22.32          31.64          20.93          64.53        -0.8421          12.64         -39.04          24.34         -112.0          53.76          53.56
    0.1458              -22.33          31.63          20.93          64.52        -0.8388          12.63         -39.07          24.33         -112.0          53.77          53.57
    0.1579              -22.34          31.62          20.94          64.51        -0.8353          12.63          -39.1          24.32         -111.9          53.78          53.58
    0.1701              -22.35          31.61          20.94           64.5        -0.8315          12.63         -39.13          24.32         -111.9           53.8          53.59
    0.1822              -22.37           31.6          20.95          64.49        -0.8273          12.62         -39.16          24.31         -111.9          53.81          53.61
    0.1944              -22.38          31.59          20.96          64.48        -0.8228          12.62          -39.2           24.3         -111.8          53.83          53.62
    0.2065               -22.4          31.57          20.97          64.47        -0.8179          12.61         -39.24          24.29         -111.7          53.84          53.64
    0.2187              -22.41          31.56          20.98          64.46        -0.8126          12.61         -39.29          24.28         -111.7          53.86          53.66
    0.2308              -22.43          31.54          20.99          64.44        -0.8067           12.6         -39.33          24.26         -111.6          53.88          53.68
    0.2429              -22.45          31.52           21.0          64.42        -0.8003           12.6         -39.39          24.25         -111.5          53.91           53.7
    0.2551              -22.47           31.5          21.01          64.41        -0.7932          12.59         -39.45          24.23         -111.5          53.93          53.73
    0.2672               -22.5          31.48          21.02          64.39        -0.7854          12.59         -39.51          24.22         -111.4          53.96          53.76
    0.2794              -22.52          31.46          21.04          64.37        -0.7767          12.58         -39.59           24.2         -111.3          53.99          53.79
    0.2915              -22.55          31.43          21.05          64.34        -0.7671          12.57         -39.67          24.18         -111.1          54.03          53.82
    0.3037              -22.59           31.4          21.07          64.31        -0.7563          12.56         -39.76          24.16         -111.0          54.06          53.86
    0.3158              -22.62          31.36          21.09          64.28        -0.7443          12.55         -39.86          24.13         -110.9          54.11           53.9
     0.328              -22.67          31.32          21.12          64.25        -0.7308          12.54         -39.97           24.1         -110.7          54.16          53.95
    0.3401              -22.71          31.28          21.14          64.21        -0.7155          12.53          -40.1          24.07         -110.5          54.21           54.0
    0.3523              -22.77          31.23          21.17          64.17        -0.6981          12.51         -40.24          24.03         -110.3          54.27          54.06
    0.3644              -22.83          31.17           21.2          64.12        -0.6783          12.49         -40.41          23.99         -110.1          54.34          54.13
    0.3766               -22.9          31.11          21.24          64.06        -0.6555          12.47          -40.6          23.94         -109.8          54.42          54.21
    0.3887              -22.98          31.03          21.29          63.99        -0.6292          12.45         -40.82          23.88         -109.5          54.52           54.3
    0.4009              -23.08          30.94          21.34          63.92        -0.5987          12.42         -41.08          23.82         -109.2          54.63          54.41
     0.413              -23.19          30.84           21.4          63.83         -0.563          12.39         -41.37          23.74         -108.7          54.75          54.54
    0.4252              -23.32          30.72          21.47          63.72        -0.5209          12.36         -41.73          23.65         -108.3           54.9          54.68
    0.4373              -23.48          30.58          21.55           63.6        -0.4708          12.31         -42.15          23.55         -107.7          55.08          54.86
    0.4495              -23.66           30.4          21.66          63.44        -0.4108          12.26         -42.65          23.42         -107.0          55.29          55.07
    0.4616              -23.89          30.19          21.78          63.26        -0.3383           12.2         -43.25          23.26         -106.1          55.55          55.32
    0.4738              -24.16          29.94          21.93          63.04        -0.2496          12.12          -44.0          23.07         -105.1          55.87          55.64
    0.4859               -24.5          29.62          22.11          62.76        -0.1402          12.02         -44.91          22.84         -103.8          56.26          56.02
     0.498              -24.93          29.23          22.35          62.42       -0.00378           11.9         -46.05          22.55         -102.2          56.74           56.5
    0.5102              -25.46          28.74          22.64          61.99         0.1681          11.75         -47.49          22.18         -100.2          57.35           57.1
    0.5223              -26.14          28.11          23.01          61.44         0.3866          11.56         -49.32          21.71         -97.59          58.13          57.87
    0.5345              -27.01           27.3          23.48          60.73         0.6662          11.32         -51.66          21.12         -94.31          59.13          58.85
    0.5466              -28.13          26.27          24.09          59.83          1.025          11.01         -54.66          20.35         -90.09          60.41          60.11
    0.5588              -29.56          24.95          24.86          58.68          1.484          10.61          -58.5          19.37          -84.7          62.04          61.72
    0.5709              -31.35          23.29          25.84          57.23           2.06           10.1         -63.32          18.14         -77.93          64.09          63.74
    0.5831              -33.54          21.27          27.03          55.46          2.762           9.49          -69.2          16.64         -69.68          66.59          66.21
    0.5952              -36.07          18.93           28.4          53.41          3.577          8.779         -76.01           14.9         -60.11          69.49          69.07
    0.6074              -38.82           16.4           29.9          51.19          4.458           8.01         -83.39          13.02         -49.76          72.63          72.16
    0.6195              -41.56          13.86          31.39          48.97           5.34           7.24         -90.77          11.14          -39.4          75.76          75.25
    0.6317              -44.09          11.52          32.77          46.92          6.154           6.53         -97.58          9.401         -29.83          78.66          78.11
    0.6438              -46.28          9.496          33.96          45.15          6.856          5.917         -103.5          7.901         -21.58          81.16          80.58
     0.656              -48.07          7.837          34.93           43.7          7.433          5.414         -108.3          6.671         -14.81          83.21           82.6
    0.6681               -49.5          6.519          35.71          42.55          7.891          5.014         -112.1          5.692          -9.42          84.85          84.21
    0.6803              -50.62          5.486          36.31          41.64           8.25            4.7         -115.1          4.926         -5.203          86.12          85.47
    0.6924              -51.49          4.682          36.79          40.94           8.53          4.456         -117.5          4.329         -1.917          87.12          86.45
    0.7046              -52.17          4.053          37.16          40.39          8.748          4.266         -119.3          3.862         0.6498           87.9          87.22
    0.7167               -52.7          3.558          37.45          39.96           8.92          4.116         -120.7          3.495          2.669          88.51          87.82
